<svg xmlns="http://www.w3.org/2000/svg" xmlns:xlink="http://www.w3.org/1999/xlink" width="62.386" height="65.904" viewBox="0 0 62.386 65.904"><defs><clipPath id="a"><rect width="62.386" height="65.904" fill="none"/></clipPath></defs><g transform="translate(0 0)" clip-path="url(#a)"><path d="M1.648.25a1.4,1.4,0,1,0,1.4,1.4A1.4,1.4,0,0,0,1.648.25Z" transform="translate(0 62.609)" fill="none" stroke="#101011" stroke-linecap="round" stroke-linejoin="round" stroke-width="0.5"/><path d="M1.648,9.194a1.4,1.4,0,1,0,1.4,1.4A1.4,1.4,0,0,0,1.648,9.194Z" transform="translate(0 44.721)" fill="none" stroke="#101011" stroke-linecap="round" stroke-linejoin="round" stroke-width="0.5"/><path d="M1.648,18.138a1.4,1.4,0,1,0,1.4,1.4A1.4,1.4,0,0,0,1.648,18.138Z" transform="translate(0 26.833)" fill="none" stroke="#101011" stroke-linecap="round" stroke-linejoin="round" stroke-width="0.5"/><path d="M1.648,27.082a1.4,1.4,0,1,0,1.4,1.4A1.4,1.4,0,0,0,1.648,27.082Z" transform="translate(0 8.945)" fill="none" stroke="#101011" stroke-linecap="round" stroke-linejoin="round" stroke-width="0.5"/><path d="M1.648,36.027a1.4,1.4,0,1,0,1.4,1.4A1.4,1.4,0,0,0,1.648,36.027Z" transform="translate(0 -8.945)" fill="none" stroke="#101011" stroke-linecap="round" stroke-linejoin="round" stroke-width="0.5"/><path d="M1.648,44.971a1.4,1.4,0,1,0,1.4,1.4A1.4,1.4,0,0,0,1.648,44.971Z" transform="translate(0 -26.833)" fill="none" stroke="#101011" stroke-linecap="round" stroke-linejoin="round" stroke-width="0.5"/><path d="M1.648,53.915a1.4,1.4,0,1,0,1.4,1.4A1.4,1.4,0,0,0,1.648,53.915Z" transform="translate(0 -44.721)" fill="none" stroke="#101011" stroke-linecap="round" stroke-linejoin="round" stroke-width="0.5"/><path d="M1.648,62.859a1.4,1.4,0,1,0,1.4,1.4A1.4,1.4,0,0,0,1.648,62.859Z" transform="translate(0 -62.609)" fill="none" stroke="#101011" stroke-linecap="round" stroke-linejoin="round" stroke-width="0.5"/><path d="M10.089.25a1.4,1.4,0,1,0,1.4,1.4A1.4,1.4,0,0,0,10.089.25Z" transform="translate(0 62.609)" fill="none" stroke="#101011" stroke-linecap="round" stroke-linejoin="round" stroke-width="0.5"/><path d="M10.089,9.194a1.4,1.4,0,1,0,1.4,1.4A1.4,1.4,0,0,0,10.089,9.194Z" transform="translate(0 44.721)" fill="none" stroke="#101011" stroke-linecap="round" stroke-linejoin="round" stroke-width="0.5"/><path d="M10.089,18.138a1.4,1.4,0,1,0,1.4,1.4A1.4,1.4,0,0,0,10.089,18.138Z" transform="translate(0 26.833)" fill="none" stroke="#101011" stroke-linecap="round" stroke-linejoin="round" stroke-width="0.5"/><path d="M10.089,27.082a1.4,1.4,0,1,0,1.4,1.4A1.4,1.4,0,0,0,10.089,27.082Z" transform="translate(0 8.945)" fill="none" stroke="#101011" stroke-linecap="round" stroke-linejoin="round" stroke-width="0.5"/><path d="M10.089,36.027a1.4,1.4,0,1,0,1.4,1.4A1.4,1.4,0,0,0,10.089,36.027Z" transform="translate(0 -8.945)" fill="none" stroke="#101011" stroke-linecap="round" stroke-linejoin="round" stroke-width="0.5"/><path d="M10.089,44.971a1.4,1.4,0,1,0,1.4,1.4A1.4,1.4,0,0,0,10.089,44.971Z" transform="translate(0 -26.833)" fill="none" stroke="#101011" stroke-linecap="round" stroke-linejoin="round" stroke-width="0.5"/><path d="M10.089,53.915a1.4,1.4,0,1,0,1.4,1.4A1.4,1.4,0,0,0,10.089,53.915Z" transform="translate(0 -44.721)" fill="none" stroke="#101011" stroke-linecap="round" stroke-linejoin="round" stroke-width="0.5"/><path d="M18.531.25a1.4,1.4,0,1,0,1.4,1.4A1.4,1.4,0,0,0,18.531.25Z" transform="translate(0 62.609)" fill="none" stroke="#101011" stroke-linecap="round" stroke-linejoin="round" stroke-width="0.5"/><path d="M18.531,9.194a1.4,1.4,0,1,0,1.4,1.4A1.4,1.4,0,0,0,18.531,9.194Z" transform="translate(0 44.721)" fill="none" stroke="#101011" stroke-linecap="round" stroke-linejoin="round" stroke-width="0.5"/><path d="M18.531,18.138a1.4,1.4,0,1,0,1.4,1.4A1.4,1.4,0,0,0,18.531,18.138Z" transform="translate(0 26.833)" fill="none" stroke="#101011" stroke-linecap="round" stroke-linejoin="round" stroke-width="0.5"/><path d="M18.531,27.082a1.4,1.4,0,1,0,1.4,1.4A1.4,1.4,0,0,0,18.531,27.082Z" transform="translate(0 8.945)" fill="none" stroke="#101011" stroke-linecap="round" stroke-linejoin="round" stroke-width="0.5"/><path d="M18.531,36.027a1.4,1.4,0,1,0,1.4,1.4A1.4,1.4,0,0,0,18.531,36.027Z" transform="translate(0 -8.945)" fill="none" stroke="#101011" stroke-linecap="round" stroke-linejoin="round" stroke-width="0.5"/><path d="M18.531,44.971a1.4,1.4,0,1,0,1.4,1.4A1.4,1.4,0,0,0,18.531,44.971Z" transform="translate(0 -26.833)" fill="none" stroke="#101011" stroke-linecap="round" stroke-linejoin="round" stroke-width="0.5"/><path d="M26.972.25a1.4,1.4,0,1,0,1.4,1.4A1.4,1.4,0,0,0,26.972.25Z" transform="translate(0 62.609)" fill="none" stroke="#101011" stroke-linecap="round" stroke-linejoin="round" stroke-width="0.5"/><path d="M26.972,9.194a1.4,1.4,0,1,0,1.4,1.4A1.4,1.4,0,0,0,26.972,9.194Z" transform="translate(0 44.721)" fill="none" stroke="#101011" stroke-linecap="round" stroke-linejoin="round" stroke-width="0.5"/><path d="M26.972,18.138a1.4,1.4,0,1,0,1.4,1.4A1.4,1.4,0,0,0,26.972,18.138Z" transform="translate(0 26.833)" fill="none" stroke="#101011" stroke-linecap="round" stroke-linejoin="round" stroke-width="0.5"/><path d="M26.972,27.082a1.4,1.4,0,1,0,1.4,1.4A1.4,1.4,0,0,0,26.972,27.082Z" transform="translate(0 8.945)" fill="none" stroke="#101011" stroke-linecap="round" stroke-linejoin="round" stroke-width="0.5"/><path d="M26.972,36.027a1.4,1.4,0,1,0,1.4,1.4A1.4,1.4,0,0,0,26.972,36.027Z" transform="translate(0 -8.945)" fill="none" stroke="#101011" stroke-linecap="round" stroke-linejoin="round" stroke-width="0.5"/><path d="M35.414.25a1.4,1.4,0,1,0,1.4,1.4A1.4,1.4,0,0,0,35.414.25Z" transform="translate(0 62.609)" fill="none" stroke="#101011" stroke-linecap="round" stroke-linejoin="round" stroke-width="0.5"/><path d="M35.414,9.194a1.4,1.4,0,1,0,1.4,1.4A1.4,1.4,0,0,0,35.414,9.194Z" transform="translate(0 44.721)" fill="none" stroke="#101011" stroke-linecap="round" stroke-linejoin="round" stroke-width="0.5"/><path d="M35.414,18.138a1.4,1.4,0,1,0,1.4,1.4A1.4,1.4,0,0,0,35.414,18.138Z" transform="translate(0 26.833)" fill="none" stroke="#101011" stroke-linecap="round" stroke-linejoin="round" stroke-width="0.5"/><path d="M35.414,27.082a1.4,1.4,0,1,0,1.4,1.4A1.4,1.4,0,0,0,35.414,27.082Z" transform="translate(0 8.945)" fill="none" stroke="#101011" stroke-linecap="round" stroke-linejoin="round" stroke-width="0.5"/><path d="M43.856.25a1.4,1.4,0,1,0,1.4,1.4A1.4,1.4,0,0,0,43.856.25Z" transform="translate(0 62.609)" fill="none" stroke="#101011" stroke-linecap="round" stroke-linejoin="round" stroke-width="0.5"/><path d="M43.856,9.194a1.4,1.4,0,1,0,1.4,1.4A1.4,1.4,0,0,0,43.856,9.194Z" transform="translate(0 44.721)" fill="none" stroke="#101011" stroke-linecap="round" stroke-linejoin="round" stroke-width="0.5"/><path d="M43.856,18.138a1.4,1.4,0,1,0,1.4,1.4A1.4,1.4,0,0,0,43.856,18.138Z" transform="translate(0 26.833)" fill="none" stroke="#101011" stroke-linecap="round" stroke-linejoin="round" stroke-width="0.5"/><path d="M52.3.25a1.4,1.4,0,1,0,1.4,1.4A1.4,1.4,0,0,0,52.3.25Z" transform="translate(0 62.609)" fill="none" stroke="#101011" stroke-linecap="round" stroke-linejoin="round" stroke-width="0.5"/><path d="M52.3,9.194a1.4,1.4,0,1,0,1.4,1.4A1.4,1.4,0,0,0,52.3,9.194Z" transform="translate(0 44.721)" fill="none" stroke="#101011" stroke-linecap="round" stroke-linejoin="round" stroke-width="0.5"/><path d="M60.739.25a1.4,1.4,0,1,0,1.4,1.4A1.4,1.4,0,0,0,60.739.25Z" transform="translate(0 62.609)" fill="none" stroke="#101011" stroke-linecap="round" stroke-linejoin="round" stroke-width="0.5"/></g></svg>