<svg xmlns="http://www.w3.org/2000/svg" xmlns:xlink="http://www.w3.org/1999/xlink" width="134.308" height="134.35" viewBox="0 0 134.308 134.35"><defs><clipPath id="a"><rect width="134.308" height="134.35" fill="none"/></clipPath></defs><g clip-path="url(#a)"><path d="M180.061,179.675c10.727,4.013,21.464,8,32.176,12.051a9.465,9.465,0,0,1,6.192,9.2q.013,19.858.005,39.716c0,.744.182,1.4-1.069,1.4-14.736-.052-29.472-.036-44.208-.04a2.093,2.093,0,0,1-.3-.042,2.635,2.635,0,0,1-.452-1.98c-.031-2.835.023-5.67-.033-8.5,0-.961.022-1.923-.008-2.886.139-4.089-.09-8.181.114-12.267.379-1.613,1.86-2.359,2.792-3.54a32.1,32.1,0,0,1,2.743-2.763,4.741,4.741,0,0,0,1.621-3.972c-.056-7.938-.029-15.877-.02-23.815a5.117,5.117,0,0,1,.253-2.358c.063-.066.126-.131.19-.2" transform="translate(-103.308 -107.687)" fill="#505050"/><path d="M107.105,247.064H71.121a2.582,2.582,0,0,1-.472-1.982q-.022-7.562,0-15.124a2.582,2.582,0,0,1,.472-1.982c2.278-.222,4.582.213,6.852-.3a9.526,9.526,0,0,0,7.532-9.2c.046-3.14.023-6.281.008-9.421a9.6,9.6,0,0,0-9.9-9.911c-.5,0-.994-.032-1.491-.05.066-1.211,1.041-1.631,1.906-2.063a80.991,80.991,0,0,1,7.645-3.01q7.06-2.673,14.139-5.291c.718-.264,1.5-.966,2.324-.149a5.869,5.869,0,0,1,.206,2.222c.006,6.836.032,13.673-.019,20.508a4.5,4.5,0,0,0,1.517,3.71,38.418,38.418,0,0,1,2.848,2.864c.922,1.175,2.39,1.921,2.784,3.518.206,4.091,0,8.186.118,12.277q-.022,1.443,0,2.889c-.071,2.838,0,5.677-.035,8.514a2.643,2.643,0,0,1-.453,1.982" transform="translate(-42.337 -112.795)" fill="#505050"/><path d="M114.734,88.311c-3.964-3-8.141-5.839-9.414-11.095a19.989,19.989,0,0,1-.129-5.517,2.247,2.247,0,0,0-1.576-2.484c-1.737-.748-3.408-1.653-5.1-2.514-2.585-1.318-3.655-4.071-2.863-7.31.6-2.462,2.454-3.73,5.374-3.777.87-.014,1.787.293,2.615-.24a.908.908,0,0,1,.824-.238c3.34.179,6.682.068,10.023.075a28.177,28.177,0,0,0,17.306-5.7c1.76-1.31,3.509-2.638,5.274-3.941.5-.37.952-.924,1.7-.764a3.3,3.3,0,0,1,.36,2.165c.03,1.447-.04,2.9.026,4.342a9.219,9.219,0,0,0,7.111,8.422c1.392.276,1.547.128,1.641-1.268.066-.963-.312-2.007.448-2.864,3.11.336,4.617,2.142,4.789,5.241s-1.039,5.144-3.9,6.338c-1.562.652-3.02,1.551-4.57,2.236a1.83,1.83,0,0,0-1.189,1.964c-.016,2.136.277,4.288-.251,6.409a8.494,8.494,0,0,1-2.508,4.5c-2.264,2.006-3.951,4.665-6.8,6.015-.832,1.155-2.134,1.265-3.345,1.3q-6.256.183-12.516,0c-1.211-.035-2.513-.147-3.345-1.3" transform="translate(-57.177 -26.841)" fill="#efc79f"/><path d="M146.064,18.048c-4.16,2.983-7.947,6.517-12.778,8.5a28.888,28.888,0,0,1-10.747,2.234c-3.042.034-6.085-.009-9.127.019a10.915,10.915,0,0,1-2.357-.268,4.816,4.816,0,0,1-3.289-4.99c.067-2.986-.181-5.977.556-8.937A19.206,19.206,0,0,1,126.736.019c4.694-.026,9.387-.01,14.081,0,5.82.007,9.8,3.772,10.133,9.565.761,1.446,0,2.767-.53,3.983-.862,2-1.944,3.928-4.356,4.485" transform="translate(-64.588 -0.003)" fill="#f9b300"/><path d="M266.731.156a19.193,19.193,0,0,1,0,38.27,18.313,18.313,0,0,1-8.919-3.9c-8-6.095-9.724-18.308-3.772-26.448A20.643,20.643,0,0,1,263.247.953c1.132-.454,2.346-.435,3.484-.8" transform="translate(-150.13 -0.093)" fill="#3cc7b3"/><path d="M23.282,218c1.548,0,3.1.025,4.643.008a4.736,4.736,0,0,0,4.9-4.919c.021-2.746.039-5.493-.011-8.238-.02-1.142.325-1.4,1.411-1.02a4.806,4.806,0,0,1,3.394,4.446c.033,1.2.067,2.4-.011,3.593-.067,1.034.265,1.4,1.335,1.368,2.644-.069,5.291-.029,7.937-.02a4.756,4.756,0,0,1,5.132,5.139q.013,4.494,0,8.987a4.742,4.742,0,0,1-5.063,5.055q-11.832.02-23.664.016a2.1,2.1,0,0,1-.522-1.787q-.037-5.421,0-10.842A2.1,2.1,0,0,1,23.282,218" transform="translate(-13.63 -122.068)" fill="#efc79f"/><path d="M143.656,153.424a11.284,11.284,0,0,0,4.616.913q4.987-.078,9.976,0a11.235,11.235,0,0,0,4.615-.913q0,5.259-.009,10.518l.021-.03a18.675,18.675,0,0,1-3.206,3.527c-1.741,1.788-3.523,3.536-5.289,5.3-.653.653-1.307.92-2.056.16-2.87-2.914-5.888-5.681-8.609-8.743-.017-.069-.033-.139-.048-.209l-.01-10.523" transform="translate(-86.099 -91.954)" fill="#d1a981"/><path d="M9.652,232.258v14.415c-.016,1.294-.073,2.59-.032,3.883.024.734-.241.924-.941.915q-3.885-.052-7.772,0c-.74.012-.91-.254-.908-.946Q.031,239.465,0,228.4c0-.692.168-.958.908-.946q3.885.06,7.772,0c.7-.009.964.181.941.915-.041,1.293.016,2.588.032,3.883" transform="translate(0 -136.326)" fill="#505050"/><path d="M260.04.062c-1,.838-2.333.739-3.477,1.213-8.184,3.388-12.935,10.565-12.348,19.342a18.956,18.956,0,0,0,14.338,17.111,2.761,2.761,0,0,1,1.485.6A19.218,19.218,0,0,1,254.83.319,19.5,19.5,0,0,1,260.04.062" transform="translate(-143.44 0)" fill="#1ea995"/><path d="M57.481,287.384v19.088c-2.893.016-5.786.012-8.678.064-.72.013-.926-.21-.923-.926q.039-8.682,0-17.365c0-.716.2-.938.923-.926,2.892.052,5.785.048,8.678.064" transform="translate(-28.697 -172.203)" fill="#3c3c3c"/><path d="M203.356,32.372a10.026,10.026,0,0,0,4.886-8.468c3.152.386,4.769,2.193,4.78,5.346q.024,6.922.043,13.845c-.014,1.291-.071,2.583-.028,3.872.028.85-.352.993-1.085.916a9.705,9.705,0,0,1-8.52-9.406q-.037-3.052-.076-6.105" transform="translate(-121.88 -14.327)" fill="#db9500"/><path d="M99.723,183.194Q89.461,187.06,79.2,190.932c-1.894.718-3.944,1.19-5.207,3.009a5.288,5.288,0,0,1-.744.046c-.736-.055-1.8.356-2.137-.179a8.272,8.272,0,0,1-.684-2.861c-.088-.487.353-.5.673-.619q14.336-5.342,28.669-10.691l-.022-.036a3.258,3.258,0,0,1-.025,3.595" transform="translate(-42.204 -107.642)" fill="#3c3c3c"/><path d="M161.618,319.043c0-3.113-.01-6.227,0-9.34,0-.478-.149-1,.257-1.409a3.487,3.487,0,0,0,4.267,0c.46.51.252,1.133.256,1.7.019,3.015.006,6.029,0,9.044Z" transform="translate(-96.849 -184.774)" fill="#3c3c3c"/><path d="M143.563,183.194q.013-1.8.025-3.595c2.878,2.829,5.788,5.627,8.615,8.506.785.8,1.213.813,2,.006,2.825-2.882,5.734-5.681,8.612-8.512-.007,9.165-.026,18.33,0,27.495a2.814,2.814,0,0,1-.949,2.345c-1.332,1.191-2.576,2.48-3.857,3.729-.593-.349-.641-.982-.786-1.551-1.022-4.013-1.985-8.041-3.043-12.044a2.86,2.86,0,0,1,.891-3.073c2.534-2.512,2.506-2.543.01-5.034-2.035-2.031-1.724-2.031-3.773.018-2.345,2.345-2.385,2.394-.049,4.63a3.111,3.111,0,0,1,.98,3.453c-1.076,3.946-2.005,7.932-3.017,11.9-.156.612-.182,1.309-.824,1.694-1.421-1.388-2.816-2.8-4.277-4.15a2.058,2.058,0,0,1-.51-1.771q-.026-12.021-.05-24.041" transform="translate(-86.044 -107.642)" fill="#efefef"/><path d="M155.634,228.026c1.2-4.779,2.385-9.562,3.618-14.332a1.554,1.554,0,0,0-.542-1.821c-.538-.441-1-.978-1.491-1.472-1.544-1.544-1.576-1.577.029-3.147,1.058-1.036,1.977-2.907,3.235-2.843,1.089.055,2.1,1.785,3.13,2.8,1.663,1.642,1.764,1.781-.037,3.275s-2.2,2.964-1.474,5.259c1.275,4.027,2.118,8.19,3.142,12.3l-2.443,2.649c-.523,1.08-1.186,2.3-2.435,2.243-1.122-.053-1.836-1.171-2.287-2.253l-2.445-2.65" transform="translate(-93.278 -122.511)" fill="#f96450"/><path d="M161.679,269.971c.929.551,1.428,2.056,2.419,1.949.828-.089,1.54-1.252,2.3-1.939q.018,5.992.035,11.984a1.161,1.161,0,0,1-.263.974,3.483,3.483,0,0,0-4.27,0,1.158,1.158,0,0,1-.261-.965q.017-6,.037-12" transform="translate(-96.878 -161.805)" fill="#3c3c3c"/><path d="M161.927,300.484c1.587-1.652,2.685-1.652,4.27,0a3,3,0,0,1,0,2.387c-1.6,1.654-2.663,1.654-4.267,0a3,3,0,0,1,0-2.387" transform="translate(-96.902 -179.35)" fill="#f7b201"/><path d="M134.9,83.227c-1.5,0-3-.012-4.489,0-.847.009-1.567-.236-1.583-1.179s.674-1.229,1.535-1.226q4.421.014,8.842,0c.725,0,1.309.2,1.51.942a1.138,1.138,0,0,1-.819,1.4c-.281.12-.432.164-.436.591-.021,2.152-.92,3.2-2.5,3.051s-2.309-1.359-2.066-3.585" transform="translate(-77.213 -48.441)" fill="#bd7800"/><path d="M182.575,80.827c1.5,0,3,.006,4.5,0,.869,0,1.529.323,1.5,1.262-.028.849-.668,1.145-1.469,1.14-1.3-.009-2.6.015-3.9-.008-.56-.01-.714.089-.661.744.141,1.725-.823,2.835-2.3,2.854a2.386,2.386,0,0,1-2.384-2.8c.024-.4.195-.7-.391-.883a1.071,1.071,0,0,1-.782-1.41c.227-.726.82-.919,1.541-.907,1.448.024,2.9.007,4.346.007" transform="translate(-105.86 -48.439)" fill="#bd7800"/><path d="M158.468,121.891c-2.507.124-4.086-1.562-5.606-3.311a1.01,1.01,0,0,1,.169-1.476,1.041,1.041,0,0,1,1.487-.095c.5.408.932.9,1.407,1.338a3.711,3.711,0,0,0,5.368.037c.479-.436.908-.927,1.4-1.347a1.046,1.046,0,0,1,1.492.034,1.125,1.125,0,0,1,.163,1.606,7.142,7.142,0,0,1-5.879,3.215" transform="translate(-91.467 -69.967)" fill="#bd7801"/><path d="M281.919,29.153c-.233.267-.412.5-.616.7-4.239,4.236-8.5,8.455-12.709,12.716-.78.788-1.254.766-2.029-.042-2.487-2.6-5.037-5.133-7.624-7.63-.761-.735-.768-1.2,0-1.9a37.936,37.936,0,0,0,3.035-3.1c.648-.744,1.06-.609,1.653.044.94,1.033,2.018,1.943,2.936,2.993.73.835,1.209.862,2.008.029,2.523-2.63,5.156-5.156,7.7-7.767.651-.668,1.067-.831,1.762-.046,1.024,1.157,2.173,2.2,3.264,3.3.2.206.384.436.62.706" transform="translate(-154.852 -14.755)" fill="#efefef"/></g></svg>