<svg xmlns="http://www.w3.org/2000/svg" xmlns:xlink="http://www.w3.org/1999/xlink" width="148.2" height="134.35" viewBox="0 0 148.2 134.35"><defs><clipPath id="a"><rect width="148.2" height="134.35" fill="none"/></clipPath></defs><g clip-path="url(#a)"><path d="M0,308.62a2.489,2.489,0,0,1,2.169-.854c3.454.02,6.908-.013,10.362-.026a.967.967,0,0,1,.791-.173,14.35,14.35,0,0,0,2.165.064q21.036,0,42.071,0c.578,0,1.157.013,1.735.01,1.084-.006,1.568.564,1.623,1.6.039.722,0,1.446.06,2.167A2.962,2.962,0,0,0,64.1,314.5c1.781.086,3.565.026,5.348.027,4.578,0,9.156.012,13.734,0,3.046-.01,3.988-.945,4.045-3.949,0-.193,0,.048,0-.145.045-2.669.162-2.794,2.775-2.794q21.47,0,42.939,0a8.5,8.5,0,0,0,2.014-.1,1.549,1.549,0,0,1,1.045-.073c.454.546,1.076.3,1.619.3,2.738.017,5.477-.014,8.216-.007.512,0,1.065-.161,1.522.236-.473.56-1.134.443-1.742.453-1.537.026-3.077.06-4.611-.009-1.049-.047-1.474.265-1.411,1.38.094,1.677.039,3.362.023,5.043-.041,4.254-2.335,7.053-6.463,7.909-.916.01-1.832.029-2.748.029q-60.839,0-121.677.049c-3.8.007-7.373-1.973-8.474-5.8-.036-.124-.169-.22-.257-.33v-8.1" transform="translate(0 -188.499)" fill="#a8daf4"/><path d="M28.868,166.621l-.492-.068a6.978,6.978,0,0,1-2.537-5.849q.062-38.342.027-76.685c0-4.555,2.309-6.863,6.832-6.864q31.107,0,62.214,0c.482,0,.963.026,1.445.039-.126,1.078-1.06,1.557-1.7,2.228-1.793,1.863-1.911,2.538-.653,4.8a6.213,6.213,0,0,1,.6,1.308.627.627,0,0,1-.471.886c-3.423.313-6.849.069-10.273.128-2.044.026-4.088.041-6.131,0-13.263.075-26.525.011-39.788.037-2.484.005-2.8.316-2.8,2.873q-.019,23.946-.006,47.893,0,8.9,0,17.8c0,2.713.136,2.846,2.878,2.846q48.109,0,96.218,0a15.121,15.121,0,0,1,1.877.041c2.879-.022,5.76-.045,8.64-.005a.949.949,0,0,1,.6.577c1.015,2.14-.369,6.665-2.413,7.892a1.343,1.343,0,0,1-.682.208c-12.385,0-24.775-.261-37.148.089-8.665.245-17.332.422-25.978.169-16.468-.481-32.931-.063-49.395-.259a2.351,2.351,0,0,1-.857-.084" transform="translate(-15.845 -47.313)" fill="#43809f"/><path d="M200.618,38.83c-.479-.883-.969-1.761-1.433-2.652a2.931,2.931,0,0,1,.523-3.688c.873-.891,1.788-1.739,2.684-2.607a4.209,4.209,0,0,0,.685-.512c1.377-1.533,1.136-7.252-.366-8.657-.914-.855-1.877-1.66-2.783-2.523a3.042,3.042,0,0,1-.62-4.161c.516-.925,1.051-1.839,1.592-2.749a3.026,3.026,0,0,1,4.006-1.612c1.2.334,2.393.724,3.573,1.136a3.18,3.18,0,0,0,2.775-.234c1.126-.648,2.258-1.287,3.377-1.948a3.3,3.3,0,0,0,1.647-2.414c.23-1.325.518-2.644.873-3.941A2.845,2.845,0,0,1,220.119.019c1.2-.027,2.409-.021,3.613,0a2.968,2.968,0,0,1,3.177,2.561c.31,1.26.59,2.529.827,3.8a3.554,3.554,0,0,0,1.621,2.268c2.808,2.058,5.607,2.907,9.074,1.279,2.535-1.19,3.57-.532,4.952,1.868,2.65,4.6,2.609,4.835-1.484,8.362-1.848,1.593-2.651,6.72-1.366,8.764a2.195,2.195,0,0,0,1.046.955,8.351,8.351,0,0,1,3.611,3.377,2.856,2.856,0,0,1,.015,2.772c-.414.976-1.035,1.839-1.512,2.781a6.8,6.8,0,0,1-1.708,2.028,2.994,2.994,0,0,1-2.758.347c-1.149-.359-2.329-.615-3.456-1.045a4.471,4.471,0,0,0-1.107-.321c-2.036-.222-6.292,2.881-6.67,4.9a30.4,30.4,0,0,1-.72,3.242,3.379,3.379,0,0,1-3.555,2.784c-1.3.046-2.6.039-3.9,0a2.963,2.963,0,0,1-2.858-2.053,15.386,15.386,0,0,1-.9-3.638,4.821,4.821,0,0,0-2.382-3.4c-2.458-1.757-4.9-2.25-7.661-.851a5.916,5.916,0,0,1-1.947.525,3.027,3.027,0,0,1-3.449-2.5" transform="translate(-121.88 0)" fill="#fec228"/><path d="M325.774,166.519a8.189,8.189,0,0,0,2.307-8.4,2.787,2.787,0,0,1-.179-1.417q.023-33.346.008-66.693a30.069,30.069,0,0,0-.123-3.176,16.085,16.085,0,0,0,.047-4.288,6.359,6.359,0,0,0-2.441-4.088c-.414-.316-1.092-.537-.774-1.31,2.312-.015,4.626-.081,6.937-.033a6.076,6.076,0,0,1,5.728,5.956c.022.336.01.675.01,1.012q0,38.24.012,76.48a7.011,7.011,0,0,1-2.292,5.678l-.564.317a58.367,58.367,0,0,1-8.676-.038" transform="translate(-199.01 -47.277)" fill="#3b7190"/><path d="M344.262,323.721c1.883-.836,3.8-1.622,4.879-3.564a7.729,7.729,0,0,0,1.172-3.8c0-2.168.051-4.338-.039-6.5-.031-.748.149-.879.823-.874,2.456.018,4.913-.017,7.369-.032.716.166.827.689.823,1.321-.014,2.165.061,4.332-.023,6.494a7.7,7.7,0,0,1-7.212,6.981c-2.6.039-5.195-.01-7.792-.02" transform="translate(-211.106 -189.45)" fill="#87c2df"/><path d="M315.381,77.225c.672,1.163,2.106,1.551,2.726,2.822a8.521,8.521,0,0,1,.7,6.482,57.166,57.166,0,0,1-6.767-.015.976.976,0,0,1-.747-.391c.473-.879.97-1.746,1.416-2.639a2.89,2.89,0,0,0-.557-3.665c-.888-.866-1.783-1.725-2.676-2.587l5.91-.007" transform="translate(-189.772 -47.355)" fill="#43809f"/><path d="M147.412,308.29l8.676.038c-.489.472-1.1.263-1.655.264q-22.2.016-44.408-.02c-1.283,0-1.822.268-1.7,1.657.367,4.238-1.027,5.457-5.336,5.345-5.975-.155-11.957-.037-17.936-.039-2.668,0-3.906-1.223-3.918-3.851-.014-3.086-.014-3.086-3.119-3.086q-21.337,0-42.673-.009c-.558,0-1.163.2-1.669-.233.578-.012,1.155-.036,1.733-.036l110.707,0c.433,0,.866-.019,1.3-.028" transform="translate(-20.648 -189.048)" fill="#87c1de"/><path d="M108.694,100.392c1.7,2.359,2.255,2.544,5.106,1.688,4.716-1.415,4.713-1.412,8.895,1.263a3.426,3.426,0,0,1,1.657,2.412c.23,1.325.52,2.644.875,3.941a2.769,2.769,0,0,0,2.953,2.246q1.88.037,3.761,0a2.86,2.86,0,0,0,3.013-2.382c.265-1.023.441-2.068.661-3.1a11.65,11.65,0,0,1,.325-1.406c.7-2.024,5.9-4.484,7.918-3.784,1,.346,2.022.625,3.017.984a3.816,3.816,0,0,0,3.207-.146c.653.1.624.647.692,1.1a11.481,11.481,0,0,1,.05,1.731q0,32.494-.009,64.989c0,.941.216,1.943-.466,2.78-.482.014-.963.04-1.444.04q-48.744.009-97.489.014c-2.5,0-2.564-.067-2.564-2.627q0-33.558,0-67.115c0-2.42.181-2.6,2.648-2.6q19.382,0,38.764,0c.578,0,1.156.027,1.734.041-1.628,1.7-1.882,3.921-2.321,6.073a5.517,5.517,0,0,1-.167.7c-.85,2.457-6.153,5.008-8.595,4.122a16.545,16.545,0,0,0-3.755-1.039,2.637,2.637,0,0,0-2.89,1.439q-.793,1.46-1.643,2.893a2.743,2.743,0,0,0,.4,3.459,15.233,15.233,0,0,0,2.246,2.038,4.812,4.812,0,0,1,1.97,4.253c-.169,5.07.722,4.032-3.662,8.168-1.6,1.51-1.808,2.432-.74,4.314.452.8.88,1.609,1.372,2.381a2.847,2.847,0,0,0,3.679,1.451c1.166-.309,2.294-.74,3.441-1.114a3.587,3.587,0,0,1,2.938.225c.382.205.766.412,1.162.586,2.707,1.195,4.526,3.043,4.679,6.182a6.864,6.864,0,0,0,.377,1.543,2.53,2.53,0,0,0,2.8,2.187c1.109.029,2.219.032,3.327,0a2.633,2.633,0,0,0,2.906-2.272,20.866,20.866,0,0,0,.7-3.1,4.245,4.245,0,0,1,2.185-3.228c5.068-2.992,3.891-2.809,8.8-1.28,2.9.9,3.473.6,5.049-1.993,2.266-3.737,2.186-4.5-1.255-7.216a5.51,5.51,0,0,1-2.373-5.108c.062-.718.015-1.446.012-2.169a4.214,4.214,0,0,1,1.712-3.5,26.505,26.505,0,0,0,2.629-2.478,2.531,2.531,0,0,0,.484-3.182,35.6,35.6,0,0,0-2.007-3.35c-.83-1.24-2.068-1.3-3.36-1.026a28.126,28.126,0,0,0-3.167,1.014,4.188,4.188,0,0,1-3.622-.328,5.4,5.4,0,0,0-.636-.343c-2.849-1.185-4.687-3.11-4.8-6.372-.053-1.574-1.086-2.714-1.916-3.932l10.734-.063" transform="translate(-29.956 -61.562)" fill="#f2f2f2"/><path d="M134.24,100.366a3.569,3.569,0,0,1,2.04,2.8,4.428,4.428,0,0,1,.166.7c-.039,3.956,2.675,5.658,5.753,7.08a3.355,3.355,0,0,0,2.656.116c1.179-.417,2.366-.824,3.572-1.151a3.025,3.025,0,0,1,3.9,1.587c.569.95,1.132,1.9,1.662,2.877a2.847,2.847,0,0,1-.517,3.915,20.818,20.818,0,0,1-2.335,2.156,4,4,0,0,0-1.823,3.835,4.378,4.378,0,0,1,0,1.011,5.477,5.477,0,0,0,2.641,5.924,6.83,6.83,0,0,1,1.054.986c1.834,1.775,1.959,2.68.67,4.942-.5.879-.984,1.769-1.532,2.618a2.84,2.84,0,0,1-3.466,1.342c-.791-.208-1.573-.447-2.359-.674-1.138-.328-2.246-1.174-3.46-.652a18.958,18.958,0,0,0-5.174,3.1,3.6,3.6,0,0,0-.822,2.12c-.237,1.129-.439,2.269-.752,3.377a2.777,2.777,0,0,1-2.935,2.275c-1.3.031-2.6.016-3.9,0a2.756,2.756,0,0,1-2.825-2.228,37.905,37.905,0,0,1-.847-3.8,3.462,3.462,0,0,0-1.932-2.7.758.758,0,0,1-.123-.075A7.67,7.67,0,0,0,115,140.707c-2.834,1.245-3.688.682-5.234-2.026-.072-.125-.139-.253-.211-.379-2.247-3.943-2.2-4.177,1.224-7.255.883-.794,2.13-1.407,2.277-2.7a18.924,18.924,0,0,0-.083-6.04c-.217-1.036-1.222-1.58-1.989-2.225-3.564-3-3.669-3.54-1.35-7.572,1.7-2.957,2.535-3.6,5.533-2.213,3.48,1.6,6.088.441,8.8-1.421a3.518,3.518,0,0,0,1.618-2.443c.176-1.09.478-2.16.675-3.248a3.658,3.658,0,0,1,2.017-2.816,36.478,36.478,0,0,1,5.965,0" transform="translate(-66.236 -61.472)" fill="#f68d36"/><path d="M310.843,172.6q0-34.472-.009-68.943c0-.553.213-1.164-.258-1.654l1.391-1.775c1.909.01,3.818.038,5.727.023a3.507,3.507,0,0,1,1.787.383,4.079,4.079,0,0,1,.321,1.821q-.013,34.083,0,68.166a3.306,3.306,0,0,1-.277,1.682,2.385,2.385,0,0,1-1.64.373l-7.037-.075" transform="translate(-190.45 -61.463)" fill="#e3e3e3"/><path d="M234.273,54.091a9.323,9.323,0,0,1,.553-10.321,9.931,9.931,0,0,1,17.664,2.822,8.844,8.844,0,0,1-.816,7.492,2.888,2.888,0,0,1-1.929.421q-6.768.013-13.537,0a3.13,3.13,0,0,1-1.936-.415" transform="translate(-142.863 -24.217)" fill="#fefefe"/><path d="M236.331,77.225l17.4-.007a9.863,9.863,0,0,1-17.4.007" transform="translate(-144.922 -47.351)" fill="#43809f"/><path d="M152.324,159.669a9.9,9.9,0,1,1-.08-19.794,9.9,9.9,0,1,1,.08,19.794" transform="translate(-87.281 -85.773)" fill="#f2f2f2"/></g></svg>