<svg xmlns="http://www.w3.org/2000/svg" xmlns:xlink="http://www.w3.org/1999/xlink" width="57.452" height="36.593" viewBox="0 0 57.452 36.593"><defs><clipPath id="a"><path d="M12.237,6.919c-.072.09-.143.181-.211.274-.021.027-.038.057-.058.084-.164.224-.321.451-.467.687v0l-.007.012c-.144.235-.275.478-.4.726-.017.031-.035.061-.052.093s-.027.066-.042.1c-.127.262-.247.53-.352.805l0,.006a.267.267,0,0,1-.009.026c-.108.283-.2.575-.286.871-.011.037-.025.071-.036.108s-.012.062-.02.092c-.071.261-.135.524-.187.794l2.228-2.774c.052-.27.116-.533.186-.794.018-.068.038-.134.058-.2.084-.3.178-.586.285-.868l.012-.035c.106-.275.226-.541.351-.8.032-.064.063-.128.095-.191.125-.248.257-.491.4-.725l.009-.016c.144-.236.3-.463.466-.686.088-.121.176-.242.27-.359Z" fill="none"/></clipPath><linearGradient id="b" x1="-1.051" y1="3.844" x2="-0.925" y2="3.844" gradientUnits="objectBoundingBox"><stop offset="0" stop-color="#975897"/><stop offset="0.285" stop-color="#915192"/><stop offset="0.67" stop-color="#814084"/><stop offset="0.802" stop-color="#7a397f"/><stop offset="0.894" stop-color="#7c3b81"/><stop offset="0.953" stop-color="#844487"/><stop offset="1" stop-color="#925292"/></linearGradient><clipPath id="c"><path d="M1.851,14.933c-.056.071-.111.142-.166.215-.025.034-.047.071-.071.105-.09.124-.177.252-.259.382-.028.041-.058.08-.083.122-.014.022-.025.044-.037.066-.1.173-.2.349-.293.531-.01.02-.023.039-.033.059l0,.01c-.1.21-.2.426-.282.646-.007.021-.018.039-.025.06-.016.04-.027.084-.042.126-.065.178-.125.36-.179.544-.011.042-.029.08-.039.123-.008.026-.012.055-.019.082-.07.259-.13.523-.177.793l0,.026c0,.022,0,.046-.007.068-.049.3-.082.6-.1.91,0,.033-.009.064-.011.1s0,.043,0,.065C0,20.114,0,20.269,0,20.424c0,.061,0,.121,0,.182v.053q.006.333.031.673l0,.038h0c.021.261.054.526.094.792.012.082.028.165.042.248.032.189.068.378.11.569.021.094.042.19.065.285q.07.286.154.577c.025.086.048.172.075.259.086.277.178.556.285.837.128.339.272.673.425,1,.023.051.044.1.069.153.148.314.309.623.477.928.015.028.028.057.043.085s.052.086.077.129q.131.228.269.451c.046.077.092.153.14.228.112.175.226.348.344.519.026.038.05.078.076.116l.013.016c.238.341.491.674.754,1,.016.02.03.041.046.061a.4.4,0,0,0,.027.031c.217.266.443.525.674.779.024.026.045.054.069.08s.054.053.08.081c.217.234.439.464.668.687l.01.01.045.042c.2.2.414.389.627.577.03.027.059.057.09.084s.061.049.091.075q.314.271.638.53l.046.04.012.008c.233.184.471.361.711.534.026.019.051.039.078.058s.078.051.116.079q.3.21.608.41c.037.024.073.05.111.075l.046.027c.254.162.512.316.773.466l.062.037c.037.021.075.039.112.06q.363.2.733.389c.034.017.067.037.1.053.012.007.027.012.04.019q.452.22.91.417c.031.012.061.028.092.042s.058.021.087.032c.346.143.693.276,1.044.4.023.007.044.017.068.025.057.019.115.035.172.054.143.046.284.091.426.134l.283.081q.213.058.426.111c.058.015.115.032.173.046l.081.016c.3.07.6.131.9.182l.163.024q.414.068.828.107l.148.017q.453.039.9.048c.066,0,.133,0,.2,0,.308,0,.615,0,.92-.022L48.7,34.585a6.94,6.94,0,0,0,5.117-2.454l2.228-2.774a6.94,6.94,0,0,1-5.118,2.454L20.218,33.8c-.305.019-.612.024-.92.021-.067,0-.133,0-.2,0-.3-.007-.6-.022-.9-.048-.048-.005-.1-.012-.146-.016-.276-.027-.553-.063-.829-.107l-.163-.025q-.453-.076-.905-.182c-.084-.019-.169-.041-.253-.062-.142-.035-.285-.072-.427-.111-.094-.026-.189-.053-.283-.081-.142-.043-.284-.088-.425-.133l-.241-.08q-.525-.18-1.044-.4L13.3,32.5c-.306-.131-.61-.268-.909-.416-.048-.023-.1-.049-.144-.073-.246-.124-.491-.254-.733-.389l-.173-.1c-.261-.149-.518-.3-.774-.466-.052-.033-.1-.069-.157-.1-.2-.132-.406-.269-.606-.409q-.1-.068-.195-.138c-.241-.172-.477-.348-.711-.532l-.062-.051c-.215-.171-.425-.348-.633-.527l-.183-.16q-.318-.282-.625-.577c-.018-.018-.038-.034-.056-.052-.229-.223-.45-.453-.668-.687-.05-.053-.1-.107-.149-.162-.232-.253-.458-.513-.674-.778-.025-.03-.048-.061-.073-.091-.262-.326-.515-.66-.755-1-.029-.043-.058-.088-.088-.131q-.175-.257-.344-.52l-.141-.228q-.138-.225-.268-.451c-.041-.071-.08-.142-.12-.213q-.254-.459-.478-.929l-.069-.152c-.152-.332-.3-.665-.424-1.006-.106-.28-.2-.559-.285-.837-.027-.086-.05-.172-.075-.258-.056-.193-.108-.386-.154-.577-.022-.095-.045-.191-.065-.285-.042-.191-.078-.381-.11-.569-.014-.083-.03-.165-.042-.248-.04-.266-.073-.53-.093-.79,0-.018,0-.034,0-.051q-.025-.334-.031-.662c0-.081,0-.16,0-.24,0-.153,0-.307.011-.458,0-.054.008-.107.012-.162.021-.308.055-.613.1-.91.006-.03.008-.062.014-.092.047-.27.107-.535.176-.794.018-.07.039-.137.059-.2.054-.186.113-.367.178-.546.022-.061.043-.124.067-.184.087-.221.179-.437.283-.647.011-.023.024-.045.036-.068.092-.181.19-.359.294-.532.038-.064.079-.126.119-.188.084-.13.169-.257.259-.382.078-.108.155-.216.239-.32Z" fill="none"/></clipPath><linearGradient id="d" x1="0.035" y1="0.74" x2="0.052" y2="0.74" xlink:href="#b"/><clipPath id="e"><path d="M23.985,0c-.318,0-.634.013-.95.033-5.849.378-9.754,3.889-10.7,8.79l-1.5.1C3.96,9.365.493,15.3,3.086,22.163S13.349,34.241,20.218,33.8l30.711-1.987c4.028-.26,6.513-3.006,6.523-6.647v-.009a9.58,9.58,0,0,0-.653-3.383c-1.945-5.153-7.655-9.066-12.822-8.826C40.276,5.531,31.96.048,24.183,0Z" fill="none"/></clipPath><linearGradient id="f" x1="0.034" y1="0.797" x2="0.05" y2="0.797" gradientUnits="objectBoundingBox"><stop offset="0" stop-color="#f5e3f2"/><stop offset="0.004" stop-color="#f5e3f2"/><stop offset="1" stop-color="#cf9cce"/></linearGradient><clipPath id="g"><path d="M23.09.886c-5.294.343-9,3.37-9.919,8.1a.85.85,0,0,1-.782.689l-1.505.1A8.146,8.146,0,0,0,4.312,13.3c-1.489,2.309-1.64,5.35-.427,8.567,2.35,6.228,9.162,11.106,15.508,11.106.258,0,.514-.008.77-.024l30.711-1.986A5.974,5.974,0,0,0,55.7,28.382a6.938,6.938,0,0,0,.3-6.309c-1.754-4.644-6.836-8.284-11.571-8.284-.138,0-.44.011-.453.011a.852.852,0,0,1-.764-.473C39.6,6.1,31.559.855,24.083.855c-.333,0-.663.01-.993.031" fill="none"/></clipPath><linearGradient id="h" x1="-0.007" y1="0.816" x2="0.01" y2="0.816" gradientUnits="objectBoundingBox"><stop offset="0" stop-color="#f0d4eb"/><stop offset="1" stop-color="#cf9cce"/></linearGradient></defs><g transform="translate(0 -0.001)"><g clip-path="url(#a)"><rect width="7.921" height="8.59" transform="translate(6.553 6.743) rotate(-36.193)" fill="url(#b)"/></g><g clip-path="url(#c)"><rect width="60.314" height="51.02" transform="matrix(0.839, -0.545, 0.545, 0.839, -11.162, 19.407)" fill="url(#d)"/></g><g clip-path="url(#e)"><rect width="62.162" height="65.926" transform="translate(-16.157 21.104) rotate(-51.727)" fill="url(#f)"/></g><g clip-path="url(#g)"><rect width="58.799" height="62.462" transform="translate(-12.944 20.647) rotate(-51.727)" fill="url(#h)"/></g></g></svg>