<svg xmlns="http://www.w3.org/2000/svg" width="34.709" height="48.623" viewBox="0 0 34.709 48.623"><g transform="translate(-199.833 -318.498)"><g transform="translate(205.948 326.304)"><path d="M208.542,355.014l28.594-25.4-2.783,40.816Z" transform="translate(-208.542 -329.616)" fill="#b7edff"/></g><g transform="translate(199.833 318.498)"><g transform="translate(0 0.001)"><path d="M225.11,360.395a.7.7,0,0,1-.4-.128l-24.575-17.32a.7.7,0,0,1-.02-1.133l30.426-23.171a.7.7,0,0,1,1.12.659l-5.851,40.491a.7.7,0,0,1-.7.6Zm-23.387-18.044,22.856,16.108,5.442-37.658Z" transform="translate(-199.833 -318.5)" fill="#6e6e6d"/></g><g transform="translate(15.33)"><path d="M231.613,360.394a.7.7,0,0,1-.612-.359l-9.245-16.5a.7.7,0,0,1,.017-.716c1.5-2.4,14.664-23.457,15.144-24.057a.7.7,0,0,1,1.243.539l-5.851,40.491a.7.7,0,0,1-.567.59A.723.723,0,0,1,231.613,360.394Zm-8.429-17.184,8.03,14.333,5.093-35.246C233.427,326.848,227.528,336.262,223.185,343.211Z" transform="translate(-221.667 -318.498)" fill="#6e6e6d"/></g><g transform="translate(0 0.001)"><path d="M215.866,343.895h-.038l-15.33-.819a.7.7,0,0,1-.388-1.26l30.426-23.171a.7.7,0,0,1,1.02.932l-15.1,23.99A.7.7,0,0,1,215.866,343.895Zm-13.385-2.121,13.01.7L228.3,322.11Z" transform="translate(-199.833 -318.5)" fill="#6e6e6d"/></g></g></g></svg>