<svg xmlns="http://www.w3.org/2000/svg" xmlns:xlink="http://www.w3.org/1999/xlink" width="133.378" height="138.509" viewBox="0 0 133.378 138.509"><defs><clipPath id="a"><rect width="133.378" height="138.509" fill="none"/></clipPath></defs><g clip-path="url(#a)"><path d="M76.029,226.837a7.083,7.083,0,0,1,3.262.267,10.744,10.744,0,0,0,2.033,1.049,3.332,3.332,0,0,1,2.31,3.814,1.734,1.734,0,0,0,.829,1.927,1.6,1.6,0,0,0,2.091.037,1.577,1.577,0,0,1,1-.383,1.909,1.909,0,0,0,2.09-1.507c.134-.422.353-1,1.05-.653,0,.179.062.406-.023.53-1.062,1.553-.08,2.279,1.152,2.927a2.676,2.676,0,0,1,.879.585c.694.88,1.29.736,1.936-.044a1.9,1.9,0,0,1,2.614-.5,7.021,7.021,0,0,1-1.52,1.106c-1.908,1.327-2.141,1.3-3.881-.167a30.262,30.262,0,0,1,6.522,12.4,3.649,3.649,0,0,1-.479,3.215c-.22.313-.634.647-.148,1.034,1.824,1.453,1.524,3.488,1.334,5.374a28.249,28.249,0,0,1-4.128,12.312c-1.286,2.055-2.361,2.507-4.7,1.938a1.847,1.847,0,0,0-2.078,2.2c.745,2.574.414,3.509-1.815,5a29.535,29.535,0,0,1-4.58,2.6c-.608.266-.887.561-.515,1.194a1.369,1.369,0,0,1-.072.226H78.748c-.163-.442-.745-.555-.833-1.056.008-.761.69-.722,1.135-.891a28.1,28.1,0,0,0,6.681-3.523c1.508-1.1,1.66-1.69.767-3.28a1.49,1.49,0,0,1,.277-2.05,6.292,6.292,0,0,0,.935-.974c.833-1.246,1.757-1.784,3.271-.945a1.74,1.74,0,0,0,2.42-.833,26.535,26.535,0,0,0,3.944-10.972,17.626,17.626,0,0,0,.3-3.087c-.077-1.525-.462-2.011-1.933-2.291-.221-.042-.447-.057-.669-.1a.982.982,0,0,1-.919-.85,1,1,0,0,1,.793-1.1,9.136,9.136,0,0,0,.89-.322,1.769,1.769,0,0,0,1.1-2.2,26.907,26.907,0,0,0-7.5-13.214,1.633,1.633,0,0,0-2.421-.111,1.928,1.928,0,0,1-2.88-.018,5.863,5.863,0,0,0-1-.695A1.947,1.947,0,0,1,82,232.05a1.719,1.719,0,0,0-1.123-2.4,29.813,29.813,0,0,0-4.606-1.572c-.543-.142-1.2-.177-1.356-.913.28-.442.783-.094,1.113-.329" transform="translate(-47.838 -144.809)" fill="#ec6c8e"/><path d="M189.99,184.549a5.406,5.406,0,0,1-.5-2.876c-.008-.685-.241-.961-.956-.935a28.725,28.725,0,0,1-6.322-.56c-.707-.132-1.02.072-1.115.736-.007.045-.013.089-.022.133-.693,3.376-1.384,3.923-5.125,2.66A39.323,39.323,0,0,1,159.377,173.1c-1.237-1.335-1.159-2.366.184-3.57,1.745-1.565,1.716-1.546.42-3.491-.873-1.31-1.7-2.658-2.452-4.04-.383-.7-.725-.831-1.482-.538-3.657,1.415-4,1.226-5.269-2.522a39.982,39.982,0,0,1-1.666-19.439c.268-1.677,1.126-2.324,2.807-2.075,2.519.373,2.486.362,3.311-2.06a41.75,41.75,0,0,1,1.651-4.133c.333-.716.289-1.047-.437-1.473-3.407-1.994-3.472-2.361-1.269-5.688a39.827,39.827,0,0,1,14.1-12.972c2.071-1.15,2.868-.905,3.978,1.188a2.619,2.619,0,0,1,.193.356c.425,1.249,1.059,1.577,2.367.921a16.823,16.823,0,0,1,4.9-1.5c1.081-.172,1.284-.66,1.116-1.645-.565-3.306.132-4.062,3.6-4.036a30.968,30.968,0,0,1,11.4,3.032c1.909.833,2.285,2.2,1.381,4.1-.817,1.714-.819,1.717.826,2.735a20.557,20.557,0,0,1,3.3,2.353c.857.8,1.54.777,2.27-.1.983-1.177,2.139-1.8,3.684-1.075a.459.459,0,0,1,.446.286c1.057,1.162,2.219,2.227,3.179,3.479a41.417,41.417,0,0,1,7.476,15.476c.481,1.962-.089,3-1.987,3.635-.257.087-.52.153-.781.223a1.622,1.622,0,0,0-1.226,2.477.832.832,0,0,0,.571.523,2.13,2.13,0,0,0,.806.073c2.845-.331,3.847,1.081,3.692,3.916a40.691,40.691,0,0,1-6.106,19.668c-.956,1.531-2.284,1.776-3.828.839-.309-.187-.614-.382-.906-.594-.683-.5-1.186-.354-1.73.288a30.57,30.57,0,0,1-3.737,4.087c-.519.425-.448.815-.055,1.256.21.235.4.488.589.742,1.368,1.837,1.2,3.087-.662,4.467a40.037,40.037,0,0,1-12.572,6.184,2.212,2.212,0,0,1-1.458.091" transform="translate(-94.886 -67.935)" fill="#f6c748"/><path d="M34.442,64.8a2.8,2.8,0,0,1-.275-.587c-.483-2.288-.478-2.3-2.777-2.567a16.615,16.615,0,0,1-2.817-.309c-.615-.18-.907.141-1.032.721a7.329,7.329,0,0,1-.383,1.287,2.009,2.009,0,0,1-2.61,1.269,32.779,32.779,0,0,1-15.57-9.309c-1.124-1.2-1.113-2.167.256-3.324.973-.822,1.212-1.427.279-2.472a16.953,16.953,0,0,1-1.89-2.949c-.326-.571-.64-.8-1.273-.44a5.127,5.127,0,0,1-1.257.487,1.952,1.952,0,0,1-2.566-1.144A32.143,32.143,0,0,1,.134,30.032a21.138,21.138,0,0,1,.31-2.267C.814,25.925,1.713,25.234,3.5,25.7c1.229.322,1.671.021,1.948-1.171A15.2,15.2,0,0,1,6.7,21.267c.378-.76.182-1.047-.505-1.435-2.283-1.29-2.465-2.139-1.064-4.316A32.686,32.686,0,0,1,17.419,4.193c1.82-.971,2.8-.7,3.693,1.16.477,1,.984,1.181,1.981.749A15.67,15.67,0,0,1,26.7,5c.555-.094,1.051-.24.841-1.043C26.959,1.735,27.464.3,30.91.234a42.658,42.658,0,0,1,7.743,2.324c2.243.98,2.7,1.928,1.795,4.213a1.067,1.067,0,0,0,.54,1.555A14.734,14.734,0,0,1,43.544,10.1c.7.6,1.207.473,1.87-.1,1.6-1.38,2.774-1.328,4.246.16a31.81,31.81,0,0,1,8.467,15.306,2.647,2.647,0,0,1-2.047,3.392c-.549.173-1.431.029-1.319.992.1.854.84.783,1.476.821,1.992.119,2.616.771,2.658,2.786a31.578,31.578,0,0,1-4.613,16.455c-.97,1.708-2.524,2.7-4.467,1.253a1.05,1.05,0,0,0-1.64.25,12.442,12.442,0,0,1-1.123,1.171c-1.66,1.662-1.661,1.662-.691,3.711.584,1.235.265,2.355-1.1,3.4a26.581,26.581,0,0,1-6.1,3.489,19.016,19.016,0,0,1-4.722,1.62" transform="translate(0 -0.149)" fill="#76c5b5"/><path d="M29.565,226.84c-.177.358-.719.043-.915.573a43.713,43.713,0,0,1,5.754,1.829c1.557.631,2.082,1.665,1.384,3.2a1.179,1.179,0,0,0,.565,1.766,6.141,6.141,0,0,1,1.13.734c1,.934,1.862,1.37,3.048.112a1.7,1.7,0,0,1,2.531.171,27.79,27.79,0,0,1,7.792,13.779c.294,1.153-.406,2.092-1.8,2.548-.475.155-1.226.064-1.152.848.073.768.758.585,1.28.631,1.689.149,2.365.83,2.331,2.5a28.107,28.107,0,0,1-4.392,14.644,2.09,2.09,0,0,1-3.052.662c-.989-.647-1.62-.557-2.163.5a3,3,0,0,1-.825.886c-1,.8-1.439,1.49-.381,2.737a1.865,1.865,0,0,1-.6,2.706,28.2,28.2,0,0,1-7.444,4.042c-.411.153-.9.165-1.2.552-.031-.032-.081-.06-.092-.1-.652-2.24-.657-2.179-3.091-2.379-1.275-.1-2.263-.259-2.565,1.473-.193,1.107-1.3,1.473-2.39,1.17a28.54,28.54,0,0,1-13.6-8.186c-.98-1.062-.906-2.019.321-3.142.658-.6.844-1.057.146-1.724a3.82,3.82,0,0,1-.676-1.006c-.621-1.186-1.125-2.206-2.895-1.356-1.192.573-2.089-.38-2.542-1.575a25.771,25.771,0,0,1-1.9-8.781,31.986,31.986,0,0,1,.3-6.19,2.049,2.049,0,0,1,2.682-1.887c.95.226,1.453.031,1.626-.943a3.087,3.087,0,0,1,.3-.894c.711-1.345,1.157-2.487-.732-3.419-.912-.449-.835-1.632-.285-2.541a28.206,28.206,0,0,1,11.51-10.731c1.272-.648,2.256-.291,2.964,1.158.413.847.845,1.013,1.645.609a4.358,4.358,0,0,1,1.278-.421c1.442-.224,2.4-.7,2.066-2.491-.176-.946.616-1.595,1.507-1.8a5.9,5.9,0,0,1,2.536-.27" transform="translate(-1.374 -144.812)" fill="#ee7b98"/><path d="M263.122,203.814a42.07,42.07,0,0,0,13.056-6c1-.707,2.387-1.194,2.177-2.928a3.983,3.983,0,0,0-1.272-2.147c-.694-.8-1.031-1.249.09-2.065a19.027,19.027,0,0,0,3.6-3.987c.621-.806,1.157-1.221,2.037-.392a5.551,5.551,0,0,0,.781.528c1.807,1.187,2.8.858,3.908-1.021a39.942,39.942,0,0,0,5.345-15.124,25.851,25.851,0,0,0,.381-5.36,2.077,2.077,0,0,0-2.15-2.088c-.135,0-.271,0-.406,0-2.53-.007-3.049-.573-2.813-3.014.043-.447.332-.436.647-.509a20.307,20.307,0,0,0,2.471-.651,1.967,1.967,0,0,0,1.3-2.585,40.423,40.423,0,0,0-10.105-18.76c-.172-.181-.655-.295-.317-.725.151.095.309.18.452.286.828.609,1.62,1.646,2.489,1.714.832.064,1.409-1.242,2.174-1.861,1.072-.868,2.036-.747,3.192.433a39.01,39.01,0,0,1,9.56,16.221q.39,1.287.706,2.6a2.136,2.136,0,0,1-1.668,2.869c-.215.066-.43.135-.65.18-1.959.4-2.422,1.317-1.739,3.237.22.62.638.558,1.066.53,3.922-.26,4.085.742,3.913,4.087a39.216,39.216,0,0,1-6.02,19.051c-.884,1.415-1.868,1.586-3.321.743-2.232-1.294-2.25-1.309-3.858.649a27.3,27.3,0,0,1-3,3.114c-.6.529-.7.908-.143,1.536,2.566,2.906,1.919,3.763-1.05,5.765a40.765,40.765,0,0,1-18.442,6.713c-.986.113-1.909.028-2.4-1.032" transform="translate(-168.018 -87.199)" fill="#e8ab3f"/><path d="M88.917,64.652a27.208,27.208,0,0,1,4.407-1.839,32.036,32.036,0,0,0,6.205-3.519c1.658-1.193,1.74-2.271.266-4.1-.577-.715-.5-1.062.091-1.643a19.953,19.953,0,0,0,2.877-3.028.654.654,0,0,1,1.026-.2c.271.16.564.284.832.45,1.647,1.018,2.5.862,3.569-.813a32.224,32.224,0,0,0,4.3-10.826,25.255,25.255,0,0,0,.544-5.874c-.051-1.874-.533-2.353-2.416-2.417-.556-.019-1.278.371-1.645-.462-.535-1.213-.3-1.757,1.026-1.918a2.816,2.816,0,0,0,2.05-1.137,1.621,1.621,0,0,0,.378-1.384,32.275,32.275,0,0,0-6.355-13.229c-.74-.9-1.525-1.768-2.338-2.6-1.216-1.25-2.4-1.3-3.592-.021-.819.878-1.358,1.15-2.341.144A10.281,10.281,0,0,0,94.917,8.27c-.619-.3-.9-.658-.5-1.466,1.21-2.4.888-3.1-1.631-4.157A33.148,33.148,0,0,0,85.839.579c-.314-.056-.692.031-.454-.494a33.748,33.748,0,0,1,15.831,2.64c2.167.932,2.532,1.78,1.511,3.854-.4.808-.45,1.272.49,1.766a17.788,17.788,0,0,1,3.093,2.167c.676.567,1.126.543,1.632-.128a4.41,4.41,0,0,1,.578-.568,2,2,0,0,1,3.1-.042,32.1,32.1,0,0,1,8.928,16.055c.317,1.347-.5,2.2-2.237,2.615-.719.171-1.572.119-1.31,1.416.175.868.506.958,1.225.965,2.711.026,3.169.7,3.03,3.457a32.436,32.436,0,0,1-4.708,15.433c-1.2,1.983-2.153,2.256-4.058.953-.869-.595-1.31-.459-1.923.325a25.246,25.246,0,0,1-2.68,2.854c-.5.465-.469.75-.046,1.2,2.07,2.189,1.066,3.486-.847,4.752A33.372,33.372,0,0,1,91.03,65.5a1.94,1.94,0,0,1-2.113-.845" transform="translate(-54.475 0)" fill="#59a7ac"/><path d="M90.455,297.41l-1.137-.79a38.106,38.106,0,0,0,6.3-3.467c1.949-1.359,2.345-2.452,1.312-4.561-.59-1.2.471-1.477.952-2.056.367-.442.7-1.021,1.559-.58a2.894,2.894,0,0,0,4.127-1.154,28.435,28.435,0,0,0,4.449-14.222c.065-1.764-.364-3.19-2.127-4.076,1.728-1.271,1.7-2.816,1.17-4.606a31.441,31.441,0,0,0-7.071-12.466c.8.125.872.045,2.02,1.064a1.4,1.4,0,0,0,1.9.108c.858-.449,1.428-1.422,2.541-1.4L108,250.664c.4,1.326,1.594,2.1,2.309,3.217.512.8.69,1.9,1.685,2.374l.624,1.334c.3,1.52.917,2.947,1.356,4.426.678,2.286.5,2.729-1.6,3.729a1.094,1.094,0,0,0-.3.262l.008-.007c-.622.321-.54.942-.421,1.406.139.543.737.544,1.237.563,1.834.07,2.336.624,1.87,2.4-.22.842.607,1.4.3,2.172q-.027.239-.054.479c-.7,1.486-.556,3.154-1.022,4.691l-.28.712a12.163,12.163,0,0,0-1.193,2.371,30.4,30.4,0,0,1-2.623,4.606c-.669.313-1.328.5-1.914-.16-.308-.528-.69-.982-1.368-.923s-.512.758-.792,1.124l-.009.012a6.263,6.263,0,0,0-2.065,1.423c-.607.819-.643,1.418.4,1.833.143.565.781.935.633,1.614a4.808,4.808,0,0,1-2.571,2.5,4.664,4.664,0,0,0-1.525,1.237,7.62,7.62,0,0,0-2.433,1.151,1.82,1.82,0,0,0-1.044.158,20.867,20.867,0,0,1-5.845,1.658,1.347,1.347,0,0,0-.709.347l-.094.041Z" transform="translate(-57.034 -159.127)" fill="#ec6c8e"/><path d="M273.341,116.88a3.831,3.831,0,0,0-3.912,1.8,1,1,0,0,1-1.7.136,26.739,26.739,0,0,0-4.817-3.437c-.7-.434-.845-.837-.456-1.634,1.607-3.285,1.418-3.721-2.04-5.137a39.164,39.164,0,0,0-9.334-2.536,2.655,2.655,0,0,1-.6-.243,22.825,22.825,0,0,1,7.643.05,37.733,37.733,0,0,1,11.6,3.187c1.978.9,2.307,1.746,1.413,3.692-.908,1.975-.9,1.97.905,3.163.447.295.864.634,1.295.953" transform="translate(-159.946 -67.38)" fill="#e8ab3f"/><path d="M98.417,231.961c-.717.082-.723.7-.9,1.188-.293.823-.706,1.453-1.753,1.256a1.512,1.512,0,0,0-1.38.417,1.332,1.332,0,0,1-2.1.111c-.715-.584-1.744-.787-1.29-2.234.528-1.68-.414-3.012-2.117-3.7-.715-.288-1.637-.329-1.861-1.323a23.058,23.058,0,0,1,10.347,2.42,1.7,1.7,0,0,1,1.051,1.863" transform="translate(-55.566 -145.383)" fill="#ec6c8e"/><path d="M152.264,280.827a.784.784,0,0,1,.453-.753c1.526-.759,1.765-1.257,1.26-2.845q-.592-1.862-1.306-3.684a1.274,1.274,0,0,1,.137-1.134,20.087,20.087,0,0,1,2.1,5.857c.357,1.448-.711,2.4-2.64,2.56" transform="translate(-97.229 -173.949)" fill="#ec6c8e"/><path d="M153.9,302.225a2.676,2.676,0,0,1-.41-2.941c.344-.753-.609-1.47-1.61-1.263-.7.146-1.407.008-1.629-.587a1.28,1.28,0,0,1,.659-1.756c-.643.927-.455,1.345.729,1.363,1.852.027,2.523.724,2.5,2.54a5.519,5.519,0,0,1-.235,2.643" transform="translate(-95.872 -188.807)" fill="#ec6c8e"/><path d="M146.208,337.038c.009-.224-.073-.524.042-.66,1.449-1.728,1.989-3.942,3.159-5.815a2.5,2.5,0,0,1,.617-.5c-.771,2.6-1.663,5.132-3.817,6.977" transform="translate(-93.349 -210.762)" fill="#ec6c8e"/><path d="M93,378.135c.631-1.082,1.823-.843,2.761-1.046a9,9,0,0,0,3.268-1.078c.524-.351,1.032-.538,1.568-.039a20.44,20.44,0,0,1-7.6,2.163" transform="translate(-59.389 -239.883)" fill="#ec6c8e"/><path d="M144.976,258.842a1.1,1.1,0,0,1-1.182-.692,7.3,7.3,0,0,0-2.429-3.419c-.519-.363-.359-.959-.382-1.48a20.616,20.616,0,0,1,3.994,5.591" transform="translate(-90.021 -161.714)" fill="#ec6c8e"/><path d="M128.061,352.755c-1.444-.156-1.6-.518-.84-1.756a2.639,2.639,0,0,1,2.505-1.5,16.879,16.879,0,0,1-1.5,1.64c-.625.532-.729,1.012-.165,1.615" transform="translate(-80.951 -223.172)" fill="#ec6c8e"/><path d="M120.757,366.719c.085-.965.807-1.248,1.573-1.565,1.064-.441,1.689-1.439,2.523-2.175a1.715,1.715,0,0,1-.838,1.695,20.883,20.883,0,0,1-3.258,2.045" transform="translate(-77.11 -231.782)" fill="#ec6c8e"/><path d="M157.578,319.8c.092-1.357.176-2.714.282-4.07.034-.428.35-.585.741-.621a12.751,12.751,0,0,1-1.023,4.691" transform="translate(-100.622 -201.217)" fill="#ec6c8e"/><path d="M134.971,346.959c.067-.57-.226-1.418.719-1.424.7-.005,1.618.053,1.441,1.224-.772-.49-1.533-.864-2.16.2" transform="translate(-86.186 -220.642)" fill="#ec6c8e"/><path d="M211.982,195.2c-6.34-6.512-6.278-18.047.184-24.818,5.194-5.443,11.583-7.3,18.767-5.3,7.21,2.007,11.683,6.989,13.215,14.311,1.274,6.089-.461,11.482-4.563,16.129a7.26,7.26,0,0,1-.932.763c-.321-.181-.345-.508-.387-.818a12.838,12.838,0,0,0-4.57-8.334,1.176,1.176,0,0,1-.369-.556c.022-1.217.557-2.327.608-3.566.262-6.316-6.363-10.565-11.571-8.41-.207.086-.422.158-.636.227-4.354,2.45-5.832,5.877-4.649,10.794a2.153,2.153,0,0,1,.077.934c-.347.876-1.219,1.294-1.761,2.01a14.523,14.523,0,0,0-2.87,5.6c-.085.382-.14.81-.544,1.04" transform="translate(-132.355 -104.914)" fill="#fefefe"/><path d="M220.3,234.666a13.376,13.376,0,0,1,4.958-8.561c.642-.055.757.535,1.058.882a9.71,9.71,0,0,0,3.893,3.212,8.679,8.679,0,0,0,5.937.307c.466-.135.937-.365,1.43-.071a11.288,11.288,0,0,1,.937,9.982,17.243,17.243,0,0,1-11.422-.847,15.713,15.713,0,0,1-6.792-4.9" transform="translate(-140.675 -144.378)" fill="#f0b12b"/><path d="M268.77,240.33c.273-2.583.574-5.152-.221-7.723a14.756,14.756,0,0,1-.867-2.247c.353-.85,1.245-1.106,1.873-1.645.952-.818,1.45-2.023,2.485-2.75a12.593,12.593,0,0,1,5.189,9.7,15.476,15.476,0,0,1-8.459,4.669" transform="translate(-170.929 -144.291)" fill="#e8ab3f"/><path d="M52.116,72.236A15.072,15.072,0,0,1,63.743,49.172,15.406,15.406,0,0,1,80.459,62.165a14.679,14.679,0,0,1-2.373,10.3.4.4,0,0,1-.506-.318,17.749,17.749,0,0,0-4.5-6.776,2.28,2.28,0,0,1,.171-1.184,7.94,7.94,0,0,0-2.346-8.708A8.027,8.027,0,0,0,61.779,53.9c-4.094,2.165-5.714,5.663-4.71,10.18a3.471,3.471,0,0,1,.15,1.058,1.75,1.75,0,0,1-.6,1.029,14.115,14.115,0,0,0-3.577,5.475c-.134.378-.267.952-.93.6" transform="translate(-31.769 -31.365)" fill="#fefefe"/><path d="M56.292,100.661a.5.5,0,0,0,.512-.353,15.429,15.429,0,0,1,4.411-6.673c.519-.022.634.43.83.747a9.207,9.207,0,0,0,3.688,3.365,8.56,8.56,0,0,0,10.834-3.189c.187-.315.331-.776.873-.669,2.193,1.371,3.332,3.523,4.31,5.794.172.4.343.8.514,1.2a15.564,15.564,0,0,1-25.971-.224" transform="translate(-35.945 -59.791)" fill="#cbd7d2"/><path d="M47.817,289.183c-2.762-4.025-2.345-10.131.96-14.088a12.923,12.923,0,0,1,21.9,2.916,12.019,12.019,0,0,1-.653,11.162c-.348.116-.525-.135-.622-.368a13.036,13.036,0,0,0-3.079-4.4,1.269,1.269,0,0,1-.346-.723c.013-1.38.6-2.679.289-4.134a7.5,7.5,0,0,0-10.162-5.766c-.256.091-.5.2-.748.314a7.64,7.64,0,0,0-3.619,8.928,1.3,1.3,0,0,1,.035.661,22.235,22.235,0,0,0-3.517,5.318.329.329,0,0,1-.443.177" transform="translate(-29.369 -172.588)" fill="#fefefe"/><path d="M51.04,313.03c.978-2,1.9-4.036,3.785-5.4.688.269.869.988,1.314,1.473a7.035,7.035,0,0,0,2.569,2.1,6.777,6.777,0,0,0,4.492.752,2.167,2.167,0,0,1,1.308.09c1.258,1.037,1.171,2.533,1.255,3.923.062,1.026.32,2.169-.65,3-5.254,1.453-11.64-1.243-14.072-5.94" transform="translate(-32.592 -196.436)" fill="#f2c4d1"/><path d="M88.559,318.966c.453-2.34.62-4.646-.789-6.769-.07-.355.205-.472.44-.574a8.2,8.2,0,0,0,4.034-3.595c.127-.226.3-.46.628-.4a16.732,16.732,0,0,1,3.828,5.388,13,13,0,0,1-8.139,5.951" transform="translate(-56.039 -196.431)" fill="#f29cb2"/><path d="M258.5,203.114a9.742,9.742,0,0,1-4.358,4.394,8.789,8.789,0,0,1-7.576-.049c-.125-.67.4-.943.8-1.277,4.683-3.931,4.624-9.941-.128-13.874-.376-.311-1-.544-.667-1.251a8.565,8.565,0,0,1,10.043,1.8c2.962,2.9,3.459,6.437,1.885,10.261" transform="translate(-157.391 -121.44)" fill="#f7b08c"/><path d="M237.457,192.607c.52,1.2,1.805,1.621,2.6,2.592a8.96,8.96,0,0,1-1.579,12.766,3.373,3.373,0,0,0-1.031,1.045c-2.084-.841-3.3-2.6-4.591-4.293a11.8,11.8,0,0,1-.462-5.838,8.92,8.92,0,0,1,5.06-6.272" transform="translate(-148.275 -122.99)" fill="#f7bf90"/><path d="M93.661,71.881a9.2,9.2,0,0,1-6,4.758,8.3,8.3,0,0,1-5.947-.679c-.127-.7.494-.9.864-1.234A8.775,8.775,0,0,0,85.788,69.3a8.443,8.443,0,0,0-2.917-7.692c-.454-.419-1.247-.689-.872-1.579A8.823,8.823,0,0,1,94.036,70.6c-.126.428-.25.856-.375,1.285" transform="translate(-52.168 -37.782)" fill="#f7b08c"/><path d="M73.333,61.553c.253,1.292,1.591,1.6,2.3,2.524,3.311,4.288,2.314,9.725-2.027,12.85a4.962,4.962,0,0,0-.562.555A9.681,9.681,0,0,1,68.77,73.15c-1.872-5.311.533-9.7,4.563-11.6" transform="translate(-43.501 -39.305)" fill="#f7bf90"/><path d="M82.108,288.454a9.277,9.277,0,0,1-5.1,4.569,7.933,7.933,0,0,1-5.969-.794c-.359-.552.085-.834.409-1.118a7.522,7.522,0,0,0,.243-11.154c-.4-.343-1-.716-.643-1.447a7.9,7.9,0,0,1,11.619,6.383,13.042,13.042,0,0,1-.557,3.56" transform="translate(-45.276 -177.257)" fill="#f7b08c"/><path d="M64.16,280.136c.11.751.76,1.094,1.227,1.551a7.791,7.791,0,0,1-.659,11.328c-.294.24-.571.429-.577.839a8.45,8.45,0,0,1-3.528-3.782c-1.247-4.514-.219-7.4,3.537-9.937" transform="translate(-38.389 -178.882)" fill="#f7bf90"/></g></svg>