<svg xmlns="http://www.w3.org/2000/svg" xmlns:xlink="http://www.w3.org/1999/xlink" width="706.433" height="442.866" viewBox="0 0 706.433 442.866"><defs><filter id="a" x="503.567" y="120" width="202.866" height="202.866" filterUnits="userSpaceOnUse"><feOffset dx="11" dy="14" input="SourceAlpha"/><feGaussianBlur stdDeviation="17.5" result="b"/><feFlood flood-opacity="0.141"/><feComposite operator="in" in2="b"/><feComposite in="SourceGraphic"/></filter><filter id="c" x="503.567" y="0" width="202.866" height="202.866" filterUnits="userSpaceOnUse"><feOffset dx="11" dy="14" input="SourceAlpha"/><feGaussianBlur stdDeviation="17.5" result="d"/><feFlood flood-opacity="0.141"/><feComposite operator="in" in2="d"/><feComposite in="SourceGraphic"/></filter><filter id="e" x="444.567" y="61" width="202.866" height="202.866" filterUnits="userSpaceOnUse"><feOffset dx="11" dy="14" input="SourceAlpha"/><feGaussianBlur stdDeviation="17.5" result="f"/><feFlood flood-opacity="0.141"/><feComposite operator="in" in2="f"/><feComposite in="SourceGraphic"/></filter><filter id="g" x="503.567" y="240" width="202.866" height="202.866" filterUnits="userSpaceOnUse"><feOffset dx="11" dy="14" input="SourceAlpha"/><feGaussianBlur stdDeviation="17.5" result="h"/><feFlood flood-opacity="0.141"/><feComposite operator="in" in2="h"/><feComposite in="SourceGraphic"/></filter><filter id="i" x="444.567" y="183" width="202.866" height="202.866" filterUnits="userSpaceOnUse"><feOffset dx="11" dy="14" input="SourceAlpha"/><feGaussianBlur stdDeviation="17.5" result="j"/><feFlood flood-opacity="0.141"/><feComposite operator="in" in2="j"/><feComposite in="SourceGraphic"/></filter></defs><g transform="translate(-122 -170.067)"><g transform="translate(0 120)"><path d="M-688.885-1112-728-1149.5l39.115-37.5H-163v75Z" transform="translate(879 1407)" fill="#ffb92e"/><g transform="translate(18.067 16.567)"><g transform="matrix(1, 0, 0, 1, 103.93, 33.5)" filter="url(#a)"><rect width="69.202" height="69.202" transform="translate(545.07 207.43) rotate(-45)" fill="#fff"/></g><text transform="translate(680.758 252.758)" fill="#ffb92e" font-size="31" font-family="OpenSans-Bold, Open Sans" font-weight="700"><tspan x="0" y="0">03</tspan></text></g><text transform="translate(298 268)" fill="#fff" font-size="25" font-family="Tajawal"><tspan x="0" y="0">بناء فرق عمل فعالة ومتكاملة</tspan></text></g><path d="M-688.885-1118-728-1152.5l39.115-34.5H-163v69Z" transform="translate(879 1413)" fill="#0086ea"/><g transform="translate(18.067 16.567)"><g transform="matrix(1, 0, 0, 1, 103.93, 153.5)" filter="url(#c)"><rect width="69.202" height="69.202" transform="translate(545.07 87.43) rotate(-45)" fill="#fff"/></g><text transform="translate(680.758 252.758)" fill="#0086ea" font-size="31" font-family="OpenSans-Bold, Open Sans" font-weight="700"><tspan x="0" y="0">01</tspan></text></g><text transform="translate(174 263)" fill="#fff" font-size="25" font-family="Tajawal"><tspan x="0" y="0">التعرف على الاحتياج التدريبي والتوجيهي للموظف</tspan></text><g transform="translate(122.091 269.567)"><g transform="translate(0)"><path d="M37.038,63,0,31.5,37.038,0H535V63Z" transform="translate(-0.091 17.433)" fill="#8667df"/><g transform="translate(485.976)"><g transform="matrix(1, 0, 0, 1, -486.07, -99.5)" filter="url(#e)"><rect width="69.202" height="69.202" transform="translate(486.07 148.43) rotate(-45)" fill="#fff"/></g><text transform="translate(31.758 60.758)" fill="#8667df" font-size="31" font-family="OpenSans-Bold, Open Sans" font-weight="700"><tspan x="0" y="0">02</tspan></text></g></g><text transform="translate(45.909 56.433)" fill="#fff" font-size="25" font-family="Tajawal"><tspan x="0" y="0">استثمار الكفاءات ونقاط القوة لدى لموظف</tspan></text></g><g transform="translate(0 240)"><path d="M-688.885-1115-728-1151l39.115-36H-163v72Z" transform="translate(879 1407)" fill="#06b4ed"/><g transform="translate(18.067 16.567)"><g transform="matrix(1, 0, 0, 1, 103.93, -86.5)" filter="url(#g)"><rect width="69.202" height="69.202" transform="translate(545.07 327.43) rotate(-45)" fill="#fff"/></g><text transform="translate(680.758 252.758)" fill="#06b4ed" font-size="31" font-family="OpenSans-Bold, Open Sans" font-weight="700"><tspan x="0" y="0">05</tspan></text></g><text transform="translate(195 268)" fill="#fff" font-size="25" font-family="Tajawal"><tspan x="0" y="0">معالجة بعض السلوكيات السلبية من جذورها</tspan></text></g><g transform="translate(122.091 391.567)"><g transform="translate(0)"><path d="M37.038,63,0,31.5,37.038,0H535V63Z" transform="translate(-0.091 17.433)" fill="#f78131"/><g transform="translate(485.976)"><g transform="matrix(1, 0, 0, 1, -486.07, -221.5)" filter="url(#i)"><rect width="69.202" height="69.202" transform="translate(486.07 270.43) rotate(-45)" fill="#fff"/></g><text transform="translate(31.758 60.758)" fill="#f78131" font-size="31" font-family="OpenSans-Bold, Open Sans" font-weight="700"><tspan x="0" y="0">04</tspan></text></g></g><text transform="translate(54.909 56.433)" fill="#fff" font-size="25" font-family="Tajawal"><tspan x="0" y="0">الاستثمار المركز في بناء قدرات المنظمات</tspan></text></g></g></svg>