<svg id="Group_382" data-name="Group 382" xmlns="http://www.w3.org/2000/svg" xmlns:xlink="http://www.w3.org/1999/xlink" width="114.629" height="80.172" viewBox="0 0 114.629 80.172">
  <defs>
    <clipPath id="clip-path">
      <rect id="Rectangle_294" data-name="Rectangle 294" width="114.629" height="80.172" fill="none"/>
    </clipPath>
  </defs>
  <g id="Group_381" data-name="Group 381" clip-path="url(#clip-path)">
    <path id="Path_800" data-name="Path 800" d="M53.031,47.483A26.242,26.242,0,0,0,39.513,29.621a25.332,25.332,0,0,0-10.645-3.088c-.654-.05-.878-.264-.886-.942a21.286,21.286,0,0,1,.331-3.9A193.1,193.1,0,0,1,33.4,1.105c.275-.942.073-1.105-.842-1.1Q23.823.056,15.1,0a1.637,1.637,0,0,0-1.588.912A78.145,78.145,0,0,0,6.939,14.7,106.246,106.246,0,0,0,1.023,38.37,72.22,72.22,0,0,0,.192,48.6C-.341,54.294.153,59.817,2.725,65.04a26.767,26.767,0,0,0,39.924,9.938A26.248,26.248,0,0,0,53.463,56.914a23.6,23.6,0,0,0-.432-9.431M28.265,71.163A17.959,17.959,0,0,1,9.143,55.753a60.187,60.187,0,0,1-.135-7.147c.2-2.109.387-4.219.589-6.328a96.839,96.839,0,0,1,3.621-18.039A99.077,99.077,0,0,1,18.436,10.48c.555-1.2,1.212-1.756,2.508-1.515a8,8,0,0,0,.959.056c-.743,3.158-1.52,6.255-2.093,9.4a36.28,36.28,0,0,0-.766,7.992,11.774,11.774,0,0,0,1.206,5.172,7.16,7.16,0,0,0,6.628,3.8A18.264,18.264,0,0,1,38.08,39.4a19.2,19.2,0,0,1,5.77,8.087,25.049,25.049,0,0,1,.926,5.369,18.018,18.018,0,0,1-16.51,18.308" transform="translate(0 0)" fill="#fefefe"/>
    <path id="Path_801" data-name="Path 801" d="M269.792,46.122a2.98,2.98,0,0,0-.076-.553A26.806,26.806,0,0,0,254.25,28.495a25.643,25.643,0,0,0-8.328-1.966c-.612-.045-.805-.269-.819-.884a20.573,20.573,0,0,1,.339-4,194.982,194.982,0,0,1,5.08-20.58c.255-.884.1-1.055-.791-1.052q-8.781.055-17.562,0a1.544,1.544,0,0,0-1.509.85,81.412,81.412,0,0,0-7.5,16.3,107.027,107.027,0,0,0-5.327,23.565,59.083,59.083,0,0,0-.539,8.121,30.975,30.975,0,0,0,1.54,13.854,26.788,26.788,0,0,0,41.3,12.017,26.5,26.5,0,0,0,9.857-14.743c.342-1.243.289-2.569.858-3.753V50.4c-.583-1.369-.454-2.914-1.057-4.278m-7.913,8.227a17.922,17.922,0,0,1-35.806-1.489c.008-1.344.022-2.684.034-4.025.219-2.443.407-4.892.659-7.332a98.282,98.282,0,0,1,1.815-10.637,117.84,117.84,0,0,1,5.142-16.437c.637-1.689,1.551-3.276,2.353-4.9.222-.454,2.569-.842,2.833-.46.2.3-.036.648-.115.951a107.556,107.556,0,0,0-2.3,11.032,22.443,22.443,0,0,0,.062,8.222c.864,3.846,3.369,6,7.31,6.112a18.313,18.313,0,0,1,11.273,3.98,20.2,20.2,0,0,1,5.408,7.013,21.314,21.314,0,0,1,1.33,7.975" transform="translate(-156.221 -0.007)" fill="#fefefe"/>
  </g>
</svg>
