<svg xmlns="http://www.w3.org/2000/svg" xmlns:xlink="http://www.w3.org/1999/xlink" width="83.504" height="87.299" viewBox="0 0 83.504 87.299"><defs><clipPath id="a"><rect width="83.504" height="87.299" fill="#6484ab"/></clipPath><clipPath id="b"><rect width="48.223" height="48.223" transform="translate(0 34.099) rotate(-45)" fill="none"/></clipPath></defs><g transform="translate(0 0)"><g clip-path="url(#a)"><path d="M2.242,32.418a1.313,1.313,0,1,1,0-1.858,1.314,1.314,0,0,1,0,1.858" transform="translate(0 12.889)" fill="#6484ab"/><path d="M6.407,36.583a1.313,1.313,0,1,1,0-1.858,1.314,1.314,0,0,1,0,1.858" transform="translate(1.779 14.668)" fill="#6484ab"/><path d="M10.572,40.748a1.313,1.313,0,1,1,0-1.858,1.314,1.314,0,0,1,0,1.858" transform="translate(3.558 16.447)" fill="#6484ab"/><path d="M14.737,44.913a1.313,1.313,0,1,1,0-1.858,1.314,1.314,0,0,1,0,1.858" transform="translate(5.337 18.226)" fill="#6484ab"/><path d="M18.9,49.078a1.313,1.313,0,1,1,0-1.858,1.314,1.314,0,0,1,0,1.858" transform="translate(7.116 20.005)" fill="#6484ab"/><path d="M23.067,53.243a1.314,1.314,0,1,1,0-1.858,1.315,1.315,0,0,1,0,1.858" transform="translate(8.895 21.784)" fill="#6484ab"/><path d="M27.232,57.408a1.313,1.313,0,1,1,0-1.858,1.314,1.314,0,0,1,0,1.858" transform="translate(10.674 23.563)" fill="#6484ab"/><path d="M31.4,61.573a1.313,1.313,0,1,1,0-1.858,1.314,1.314,0,0,1,0,1.858" transform="translate(12.453 25.342)" fill="#6484ab"/><path d="M6.173,28.487a1.313,1.313,0,1,1,0-1.858,1.314,1.314,0,0,1,0,1.858" transform="translate(1.679 11.21)" fill="#6484ab"/><path d="M10.338,32.652a1.313,1.313,0,1,1,0-1.857,1.314,1.314,0,0,1,0,1.857" transform="translate(3.458 12.989)" fill="#6484ab"/><path d="M14.5,36.817a1.313,1.313,0,1,1,0-1.857,1.314,1.314,0,0,1,0,1.857" transform="translate(5.237 14.768)" fill="#6484ab"/><path d="M18.668,40.982a1.313,1.313,0,1,1,0-1.857,1.314,1.314,0,0,1,0,1.857" transform="translate(7.016 16.547)" fill="#6484ab"/><path d="M22.833,45.147a1.313,1.313,0,1,1,0-1.857,1.314,1.314,0,0,1,0,1.857" transform="translate(8.795 18.326)" fill="#6484ab"/><path d="M27,49.312a1.313,1.313,0,1,1,0-1.857,1.314,1.314,0,0,1,0,1.857" transform="translate(10.574 20.105)" fill="#6484ab"/><path d="M31.163,53.477a1.313,1.313,0,1,1,0-1.857,1.314,1.314,0,0,1,0,1.857" transform="translate(12.353 21.884)" fill="#6484ab"/><path d="M35.328,57.642a1.313,1.313,0,1,1,0-1.857,1.315,1.315,0,0,1,0,1.857" transform="translate(14.132 23.663)" fill="#6484ab"/><path d="M10.1,24.556a1.314,1.314,0,1,1,0-1.858,1.315,1.315,0,0,1,0,1.858" transform="translate(3.358 9.531)" fill="#6484ab"/><path d="M14.269,28.721a1.313,1.313,0,1,1,0-1.857,1.315,1.315,0,0,1,0,1.857" transform="translate(5.137 11.31)" fill="#6484ab"/><path d="M18.434,32.886a1.313,1.313,0,1,1,0-1.857,1.315,1.315,0,0,1,0,1.857" transform="translate(6.916 13.089)" fill="#6484ab"/><path d="M22.6,37.051a1.313,1.313,0,1,1,0-1.857,1.315,1.315,0,0,1,0,1.857" transform="translate(8.695 14.868)" fill="#6484ab"/><path d="M26.764,41.216a1.313,1.313,0,1,1,0-1.857,1.315,1.315,0,0,1,0,1.857" transform="translate(10.474 16.647)" fill="#6484ab"/><path d="M30.929,45.381a1.313,1.313,0,1,1,0-1.857,1.315,1.315,0,0,1,0,1.857" transform="translate(12.253 18.426)" fill="#6484ab"/><path d="M35.094,49.546a1.313,1.313,0,1,1,0-1.857,1.315,1.315,0,0,1,0,1.857" transform="translate(14.032 20.205)" fill="#6484ab"/><path d="M39.259,53.711a1.313,1.313,0,1,1,0-1.857,1.315,1.315,0,0,1,0,1.857" transform="translate(15.811 21.984)" fill="#6484ab"/><path d="M14.035,20.625a1.314,1.314,0,1,1,0-1.858,1.315,1.315,0,0,1,0,1.858" transform="translate(5.037 7.852)" fill="#6484ab"/><path d="M18.2,24.79a1.313,1.313,0,1,1,0-1.857,1.315,1.315,0,0,1,0,1.857" transform="translate(6.816 9.631)" fill="#6484ab"/><path d="M22.365,28.955a1.313,1.313,0,1,1,0-1.857,1.313,1.313,0,0,1,0,1.857" transform="translate(8.595 11.41)" fill="#6484ab"/><path d="M26.53,33.12a1.313,1.313,0,1,1,0-1.857,1.315,1.315,0,0,1,0,1.857" transform="translate(10.374 13.189)" fill="#6484ab"/><path d="M30.7,37.285a1.313,1.313,0,1,1,0-1.857,1.313,1.313,0,0,1,0,1.857" transform="translate(12.153 14.968)" fill="#6484ab"/><path d="M34.86,41.45a1.313,1.313,0,1,1,0-1.857,1.315,1.315,0,0,1,0,1.857" transform="translate(13.932 16.747)" fill="#6484ab"/><path d="M39.025,45.615a1.313,1.313,0,1,1,0-1.857,1.315,1.315,0,0,1,0,1.857" transform="translate(15.711 18.526)" fill="#6484ab"/><path d="M43.19,49.78a1.313,1.313,0,1,1,0-1.857,1.315,1.315,0,0,1,0,1.857" transform="translate(17.49 20.305)" fill="#6484ab"/><path d="M17.966,16.694a1.314,1.314,0,1,1,0-1.858,1.315,1.315,0,0,1,0,1.858" transform="translate(6.716 6.172)" fill="#6484ab"/><path d="M22.131,20.859a1.314,1.314,0,1,1,0-1.858,1.315,1.315,0,0,1,0,1.858" transform="translate(8.495 7.951)" fill="#6484ab"/><path d="M26.3,25.024a1.314,1.314,0,1,1,0-1.858,1.315,1.315,0,0,1,0,1.858" transform="translate(10.274 9.73)" fill="#6484ab"/><path d="M30.461,29.189a1.314,1.314,0,1,1,0-1.858,1.315,1.315,0,0,1,0,1.858" transform="translate(12.053 11.509)" fill="#6484ab"/><path d="M34.626,33.354a1.314,1.314,0,1,1,0-1.858,1.315,1.315,0,0,1,0,1.858" transform="translate(13.832 13.288)" fill="#6484ab"/><path d="M38.791,37.519a1.314,1.314,0,1,1,0-1.858,1.315,1.315,0,0,1,0,1.858" transform="translate(15.611 15.067)" fill="#6484ab"/><path d="M42.956,41.684a1.314,1.314,0,1,1,0-1.858,1.315,1.315,0,0,1,0,1.858" transform="translate(17.39 16.846)" fill="#6484ab"/><path d="M47.121,45.849a1.314,1.314,0,1,1,0-1.858,1.315,1.315,0,0,1,0,1.858" transform="translate(19.169 18.625)" fill="#6484ab"/><path d="M21.9,12.763a1.314,1.314,0,1,1,0-1.858,1.315,1.315,0,0,1,0,1.858" transform="translate(8.395 4.493)" fill="#6484ab"/><path d="M26.062,16.928a1.314,1.314,0,1,1,0-1.858,1.315,1.315,0,0,1,0,1.858" transform="translate(10.174 6.272)" fill="#6484ab"/><path d="M30.227,21.093a1.314,1.314,0,1,1,0-1.858,1.315,1.315,0,0,1,0,1.858" transform="translate(11.953 8.051)" fill="#6484ab"/><path d="M34.392,25.258a1.314,1.314,0,1,1,0-1.858,1.315,1.315,0,0,1,0,1.858" transform="translate(13.732 9.83)" fill="#6484ab"/><path d="M38.557,29.423a1.314,1.314,0,1,1,0-1.858,1.315,1.315,0,0,1,0,1.858" transform="translate(15.511 11.609)" fill="#6484ab"/><path d="M42.722,33.588a1.314,1.314,0,1,1,0-1.858,1.315,1.315,0,0,1,0,1.858" transform="translate(17.29 13.388)" fill="#6484ab"/><path d="M46.887,37.753a1.314,1.314,0,1,1,0-1.858,1.315,1.315,0,0,1,0,1.858" transform="translate(19.069 15.167)" fill="#6484ab"/><path d="M51.052,41.918a1.314,1.314,0,1,1,0-1.858,1.315,1.315,0,0,1,0,1.858" transform="translate(20.848 16.946)" fill="#6484ab"/><path d="M25.828,8.832a1.313,1.313,0,1,1,0-1.858,1.314,1.314,0,0,1,0,1.858" transform="translate(10.074 2.814)" fill="#6484ab"/><path d="M29.993,13a1.313,1.313,0,1,1,0-1.858,1.314,1.314,0,0,1,0,1.858" transform="translate(11.853 4.593)" fill="#6484ab"/><path d="M34.158,17.162a1.313,1.313,0,1,1,0-1.858,1.314,1.314,0,0,1,0,1.858" transform="translate(13.632 6.372)" fill="#6484ab"/><path d="M38.323,21.327a1.313,1.313,0,1,1,0-1.858,1.314,1.314,0,0,1,0,1.858" transform="translate(15.411 8.151)" fill="#6484ab"/><path d="M42.488,25.492a1.313,1.313,0,1,1,0-1.858,1.314,1.314,0,0,1,0,1.858" transform="translate(17.19 9.93)" fill="#6484ab"/><path d="M46.653,29.657a1.313,1.313,0,1,1,0-1.858,1.314,1.314,0,0,1,0,1.858" transform="translate(18.969 11.709)" fill="#6484ab"/><path d="M50.818,33.822a1.313,1.313,0,1,1,0-1.858,1.314,1.314,0,0,1,0,1.858" transform="translate(20.748 13.488)" fill="#6484ab"/><path d="M54.983,37.987a1.313,1.313,0,1,1,0-1.858,1.314,1.314,0,0,1,0,1.858" transform="translate(22.527 15.267)" fill="#6484ab"/><path d="M29.759,4.9a1.313,1.313,0,1,1,0-1.858,1.314,1.314,0,0,1,0,1.858" transform="translate(11.753 1.135)" fill="#6484ab"/><path d="M33.924,9.066a1.313,1.313,0,1,1,0-1.858,1.314,1.314,0,0,1,0,1.858" transform="translate(13.532 2.914)" fill="#6484ab"/><path d="M38.089,13.231a1.313,1.313,0,1,1,0-1.858,1.314,1.314,0,0,1,0,1.858" transform="translate(15.311 4.693)" fill="#6484ab"/><path d="M42.254,17.4a1.313,1.313,0,1,1,0-1.858,1.314,1.314,0,0,1,0,1.858" transform="translate(17.09 6.472)" fill="#6484ab"/><path d="M46.419,21.561a1.313,1.313,0,1,1,0-1.858,1.314,1.314,0,0,1,0,1.858" transform="translate(18.869 8.251)" fill="#6484ab"/><path d="M50.584,25.726a1.313,1.313,0,1,1,0-1.858,1.314,1.314,0,0,1,0,1.858" transform="translate(20.648 10.03)" fill="#6484ab"/><path d="M54.749,29.891a1.313,1.313,0,1,1,0-1.858,1.314,1.314,0,0,1,0,1.858" transform="translate(22.427 11.809)" fill="#6484ab"/><path d="M58.914,34.056a1.313,1.313,0,1,1,0-1.858,1.314,1.314,0,0,1,0,1.858" transform="translate(24.206 13.588)" fill="#6484ab"/><rect width="48.222" height="48.222" transform="translate(8.128 34.098) rotate(-45)" fill="#6484ab"/></g></g><g transform="translate(8.127 0)"><g clip-path="url(#b)"><path d="M61.237,55.542a31.448,31.448,0,1,1,0-44.474A31.449,31.449,0,0,1,61.237,55.542Z" transform="translate(-4.901 0.794)" fill="none" stroke="#f9f7f7" stroke-miterlimit="10" stroke-width="0.557"/><circle cx="25.048" cy="25.048" r="25.048" transform="translate(9.052 9.051)" fill="none" stroke="#f9f7f7" stroke-miterlimit="10" stroke-width="0.557"/><path d="M48.355,42.659a18.648,18.648,0,1,1,0-26.372A18.647,18.647,0,0,1,48.355,42.659Z" transform="translate(-1.07 4.624)" fill="none" stroke="#f9f7f7" stroke-miterlimit="10" stroke-width="0.557"/><path d="M41.915,36.219a12.248,12.248,0,1,1,0-17.321A12.249,12.249,0,0,1,41.915,36.219Z" transform="translate(0.845 6.54)" fill="none" stroke="#f9f7f7" stroke-miterlimit="10" stroke-width="0.557"/><circle cx="5.847" cy="5.847" r="5.847" transform="translate(28.253 28.252)" fill="none" stroke="#f9f7f7" stroke-miterlimit="10" stroke-width="0.557"/></g></g></svg>