<svg xmlns="http://www.w3.org/2000/svg" width="24.441" height="32.583" viewBox="0 0 24.441 32.583"><g transform="translate(-24)"><path d="M36.22,0A12.234,12.234,0,0,0,24,12.22c0,8.61,10.8,19.51,11.26,19.97a1.371,1.371,0,0,0,1.92,0c.46-.46,11.26-11.359,11.26-19.97A12.234,12.234,0,0,0,36.22,0Zm0,20.367a8.147,8.147,0,1,1,8.147-8.147A8.147,8.147,0,0,1,36.22,20.367Z" transform="translate(0)" fill="#e9e9e9"/><path d="M73.681,46.787,68.25,44.071a.679.679,0,0,0-.607,0l-5.431,2.716L62.818,48l1.733-.867v4.333a.679.679,0,0,0,.679.679h5.431a.679.679,0,0,0,.679-.679V47.135L73.074,48Z" transform="translate(-31.726 -36.532)" fill="#e9e9e9"/></g></svg>